<svg version="1.2" xmlns="http://www.w3.org/2000/svg" viewBox="0 0 388 70" width="388" height="70">
	<title>Group 11-svg</title>
	<style>
		.s0 { fill: #8cb6ef } 
		.s1 { fill: #cfd2d6 } 
	</style>
	<path id="Layer" fill-rule="evenodd" class="s0" d="m12.8 59h-12.4l16.9-44.8h12.8l17 44.8h-12.5l-2.9-8h-16zm5.8-16.3h10.2l-5.1-15.1zm64.3-29.1q1.6 0 5.8 0.7v8.6h-2.6q-0.9 0-1.7 0.6q-0.8 0.6-1.2 1.3l-6 11.5l12.4 22.8h-12.1l-9.9-18.3h-5.8v18.3h-11.5v-44.8h11.5v17.6h5.8l6.4-12.2q1.4-2.7 3.4-4.4q2.1-1.7 5.5-1.7zm10.6 0.7h25.6q6.2 0 9.2 2.8q2.9 2.9 2.9 8.7q0 3.8-1.6 6.3q-1.7 2.3-4.1 3.3q5.1 1.4 7 6.9q0.6 2 0.6 4.6q0 6.3-2.9 9.2q-2.9 3-9.2 3h-27.5zm28.1 30.7q0-3.9-3.8-3.9h-12.8v9h12.8q3.8 0 3.8-3.8zm-1.9-18q0-3.8-3.8-3.8h-10.9v9h10.9q3.8 0 3.8-3.9zm27.2 32h-12.5l17-44.8h12.8l16.9 44.8h-12.4l-2.9-8h-16zm5.7-16.3h10.3l-5.1-15zm66.2 15.6q-14.3 1.3-23.7 1.3q-6.3 0-9.2-2.9q-2.9-3-2.9-9.2v-20.5q0-6.7 3-9.7q3-3.1 9.8-3.1h23v8.9h-20.5q-3.8 0-3.8 3.9v20.5q0 1.4 0.8 2.3q0.9 0.9 2.3 0.9q1.3 0 2.9 0q1.6-0.1 3.3-0.2q1.8 0 3.5-0.1q1.8-0.1 4.5-0.3q2.8-0.1 7-0.4zm26.9 0.6h-11.5v-35.8h-13.5v-9h38.4v9h-13.4zm17.9-44.8h26.9q6.7 0 9.7 3.1q3.1 3 3.1 9.7v6.4q0 6.7-3.1 9.8q-3 3-9.7 3h-15.4v12.8h-11.5zm28.2 12.8q0-3.8-3.9-3.8h-12.8v14h12.8q3.9 0 3.9-3.8zm83.1 32v-27.5l-15.3 27.5h-12.2v-44.8h11.5v27.5l15.4-27.5h12.2v44.8zm-11.6-48q-8.3 0-8.3-8.3v-1.9h8.3v1.6q0 0.9 0.7 1.6q0.6 0.6 1.6 0.6h1.9q1 0 1.6-0.6q0.6-0.7 0.6-1.6v-1.6h8.4v1.9q0 8.3-8.4 8.3z" />
	<path id="Layer" fill-rule="evenodd" class="s1" d="m305.8 41.8c-0.1-8.5 11.1-26.5 16.5-34.6c1.3-2 4.1-2 5.4 0c5.4 8.1 16.5 26.1 16.5 34.6c0 11.3-8.6 20.4-19.2 20.4c-10.6 0-19.3-9.1-19.3-20.4zm10.5 0c0-0.9-0.7-1.9-1.7-1.9c-1 0-1.8 1-1.8 1.9c0 7.2 5.5 13 12.3 13c1 0 1.7-0.8 1.7-1.9c0-1-0.7-1.8-1.7-1.8c-4.8 0-8.8-4.1-8.8-9.3z" />
	<path id="Layer" fill-rule="evenodd" class="s0" d="m307 43.4c0-6.9 9.6-21.6 14.1-28.2c1.2-1.6 3.6-1.6 4.8 0c4.5 6.6 14.1 21.3 14.1 28.2c0 9.1-7.4 16.5-16.5 16.5c-9.1 0-16.5-7.4-16.5-16.5zm9 0c0-0.8-0.7-1.5-1.5-1.5c-0.8 0-1.5 0.7-1.5 1.5c0 5.8 4.7 10.5 10.5 10.5c0.8 0 1.5-0.6 1.5-1.5c0-0.8-0.7-1.5-1.5-1.5c-4.1 0-7.5-3.3-7.5-7.5z" />
</svg>